<svg width="150" height="150" viewBox="0 0 150 150" fill="none" xmlns="http://www.w3.org/2000/svg">
<circle cx="75" cy="75" r="75" fill="#FFCC00"/>
<path d="M75 25C102.614 25 125 47.3858 125 75C125 102.614 102.614 125 75 125C47.3858 125 25 102.614 25 75C25 47.3858 47.3858 25 75 25ZM75 45C58.4315 45 45 58.4315 45 75C45 91.5685 58.4315 105 75 105C91.5685 105 105 91.5685 105 75C105 58.4315 91.5685 45 75 45Z" fill="#FFCC00"/>
<path d="M75 45C58.4315 45 45 58.4315 45 75C45 91.5685 58.4315 105 75 105V125C47.3858 125 25 102.614 25 75C25 47.3858 47.3858 25 75 25V45Z" fill="url(#paint0_linear_217_121)"/>
<path d="M75 45C91.5685 45 105 58.4315 105 75H125C125 47.3858 102.614 25 75 25V45Z" fill="url(#paint1_linear_217_121)"/>
<path d="M75 105C91.5685 105 105 91.5685 105 75H125C125 102.614 102.614 125 75 125V105Z" fill="url(#paint2_linear_217_121)"/>
<path d="M85 91H67L99 133H119L85 91Z" fill="#0D143C"/>
<defs>
<linearGradient id="paint0_linear_217_121" x1="75" y1="25" x2="75" y2="125" gradientUnits="userSpaceOnUse">
<stop stop-color="#EB7146"/>
<stop offset="0.165946" stop-color="#EB7246"/>
<stop offset="0.496204" stop-color="#EBAA4D"/>
<stop offset="1" stop-color="#5FB7CD"/>
</linearGradient>
<linearGradient id="paint1_linear_217_121" x1="75" y1="25" x2="75" y2="75" gradientUnits="userSpaceOnUse">
<stop stop-color="#EB7747"/>
<stop offset="0.147292" stop-color="#EB7446"/>
<stop offset="0.279678" stop-color="#EB7146"/>
<stop offset="0.370296" stop-color="#EB6F46"/>
<stop offset="0.5" stop-color="#EB6D45"/>
<stop offset="1" stop-color="#64B5C8"/>
</linearGradient>
<linearGradient id="paint2_linear_217_121" x1="100" y1="75" x2="100" y2="125" gradientUnits="userSpaceOnUse">
<stop stop-color="#66B3C6"/>
<stop offset="0.0233343" stop-color="#62B6CA"/>
<stop offset="0.628063" stop-color="#8EB3A2"/>
<stop offset="0.770713" stop-color="#80B4B0"/>
<stop offset="0.874644" stop-color="#73B5BB"/>
<stop offset="1" stop-color="#63B7CA"/>
</linearGradient>
</defs>
</svg>
